<?xml version="1.0" standalone="no"?>
<svg width="800" height="800" title="polygons" version="1.1" viewBox="0 0 800 800" xmlns="http://www.w3.org/2000/svg" class="svg-paper"><!----> <g><desc>pwidth:800;pheight:800;pcolor:;seed:10};sf:i+i*7;rf:10*sin(i/2);xf:400;yf:400;qt:32;sd:7;rn:-2;minrd:135;maxrd:50;mina:200;maxa:360;cv:curveCardinalClosed;rd:false</desc> <path stroke="#000000" stroke-width="0.4mm" fill="none" d="M272.03,357.00C238.41,457.06,229.33,384.58,286.60,473.24C343.86,561.91,281.54,523.82,386.56,534.33C491.58,544.84,422.95,569.82,496.64,494.26C570.34,418.70,547.08,487.94,533.95,383.21C520.83,278.49,560.46,339.84,470.39,284.81C380.33,229.77,453.01,237.04,353.83,273.14C254.65,309.24,305.65,256.95,272.03,357.00"/><path stroke="#000000" stroke-width="0.4mm" fill="none" d="M261.11,365.95C234.49,474.53,218.49,398.83,286.78,487.35C355.08,575.87,285.92,541.19,397.70,542.98C509.49,544.78,439.25,577.22,510.36,490.94C581.46,404.66,563.03,479.81,539.91,370.42C516.78,261.04,564.04,322.29,464.11,272.17C364.17,222.05,441.53,223.30,340.03,270.18C238.54,317.07,287.74,257.36,261.11,365.95"/><path stroke="#000000" stroke-width="0.4mm" fill="none" d="M251.37,373.37C230.55,489.58,208.64,410.87,286.51,499.60C364.38,588.33,289.19,556.39,407.11,550.83C525.04,545.27,453.18,584.15,522.36,488.48C591.54,392.81,577.13,473.23,545.47,359.50C513.80,245.77,567.69,307.17,459.03,261.02C350.37,214.86,431.98,211.01,328.15,267.19C224.31,323.37,272.18,257.17,251.37,373.37"/><path stroke="#000000" stroke-width="0.4mm" fill="none" d="M242.79,376.23C224.20,499.15,198.88,416.93,283.40,508.10C367.91,599.26,287.85,567.80,411.81,558.56C535.78,549.32,461.26,592.31,531.33,489.63C601.40,386.95,588.55,472.00,551.96,353.20C515.37,234.40,573.85,297.48,458.15,252.02C342.46,206.55,428.24,200.16,320.56,262.27C212.88,324.38,261.37,253.32,242.79,376.23"/><path stroke="#000000" stroke-width="0.4mm" fill="none" d="M235.28,372.50C213.78,501.28,188.52,414.53,275.80,511.64C363.08,608.74,279.50,574.40,409.84,566.71C540.18,559.01,461.23,602.95,536.48,496.25C611.72,389.55,596.84,478.67,560.34,353.31C523.83,227.95,584.24,295.15,463.47,245.53C342.70,195.91,432.89,190.59,318.80,254.07C204.71,317.55,256.78,243.72,235.28,372.50"/><path stroke="#000000" stroke-width="0.4mm" fill="none" d="M229.21,361.86C199.39,495.40,177.89,403.19,263.70,509.76C349.51,616.32,264.01,575.64,400.83,575.00C537.64,574.35,452.53,615.84,537.33,508.46C622.13,401.09,601.50,493.50,570.43,360.25C539.35,227.01,598.73,300.76,475.18,241.97C351.63,183.19,446.32,182.75,323.33,242.69C200.34,302.64,259.02,228.33,229.21,361.86"/><path stroke="#000000" stroke-width="0.4mm" fill="none" d="M225.15,346.01C182.93,482.71,168.21,384.80,248.77,503.04C329.33,621.28,243.60,571.75,386.27,582.48C528.94,593.22,436.76,629.36,534.11,524.51C631.46,419.66,602.25,514.26,580.96,372.78C559.68,231.30,615.43,313.12,491.55,241.55C367.66,169.97,466.39,177.40,333.19,229.63C199.99,281.86,267.36,209.30,225.15,346.01"/><path stroke="#000000" stroke-width="0.4mm" fill="none" d="M223.01,328.21C166.88,466.58,160.32,363.45,233.52,493.62C306.71,623.78,221.99,564.60,369.39,588.53C516.79,612.46,417.70,641.80,528.31,541.48C638.93,441.16,600.08,536.92,590.62,387.89C581.15,238.86,631.80,328.94,509.38,243.42C386.96,157.90,488.96,174.47,345.78,216.86C202.59,259.25,279.14,189.83,223.01,328.21"/><path stroke="#000000" stroke-width="0.4mm" fill="none" d="M221.35,312.33C152.81,452.00,153.61,344.34,220.07,485.01C286.53,625.68,202.86,557.93,354.28,593.68C505.70,629.42,400.56,652.60,522.92,556.50C645.27,460.40,597.84,557.06,598.99,401.48C600.15,245.90,646.14,343.25,525.23,245.34C404.31,147.44,509.10,172.17,357.16,205.67C205.22,239.16,289.90,172.66,221.35,312.33"/><path stroke="#000000" stroke-width="0.4mm" fill="none" d="M217.82,301.72C140.98,444.15,146.12,332.27,209.57,481.15C273.02,630.04,188.76,556.26,344.72,599.48C500.68,642.70,390.46,662.58,521.49,567.60C652.52,472.61,599.35,571.18,606.78,409.51C614.21,247.84,658.12,350.87,536.36,244.26C414.60,137.65,522.52,167.56,363.26,196.29C203.99,225.02,294.66,159.28,217.82,301.72"/><path stroke="#000000" stroke-width="0.4mm" fill="none" d="M210.45,298.53C131.12,446.73,136.08,330.51,202.49,484.93C268.89,639.35,181.12,563.01,343.25,607.38C505.39,651.74,390.98,672.76,526.75,573.66C662.53,474.56,607.63,577.12,614.80,409.18C621.98,241.24,667.93,348.10,541.10,237.78C414.28,127.46,526.48,158.16,361.15,188.54C195.82,218.91,289.78,150.34,210.45,298.53"/><path stroke="#000000" stroke-width="0.4mm" fill="none" d="M198.94,303.55C123.53,460.75,123.35,340.10,199.23,497.06C275.12,654.03,180.67,578.95,350.71,617.48C520.75,656.02,403.16,683.05,539.30,574.14C675.45,465.22,623.27,574.01,623.00,399.66C622.73,225.31,675.25,333.94,538.77,225.44C402.30,116.94,519.96,143.61,350.05,182.67C180.13,221.72,274.34,146.35,198.94,303.55"/><path stroke="#000000" stroke-width="0.4mm" fill="none" d="M184.88,315.84C119.08,484.03,109.60,359.41,200.08,515.72C290.55,672.03,187.21,601.74,365.82,628.46C544.44,655.18,425.05,692.15,557.31,569.16C689.56,446.18,644.03,562.57,630.33,382.48C616.64,202.40,679.25,310.57,529.92,209.00C380.58,107.42,504.19,125.91,331.67,179.34C159.15,232.76,250.67,147.65,184.88,315.84"/><path stroke="#000000" stroke-width="0.4mm" fill="none" d="M170.75,332.44C117.93,511.68,97.04,384.06,204.24,537.11C311.44,690.16,198.65,626.93,385.15,638.54C571.64,650.15,451.88,698.91,577.24,560.34C702.59,421.77,666.04,545.81,635.86,361.40C605.68,177.00,679.87,282.91,516.88,191.53C353.89,100.15,482.95,108.19,309.88,178.64C136.82,249.10,223.57,153.20,170.75,332.44"/><path stroke="#000000" stroke-width="0.4mm" fill="none" d="M158.40,348.64C118.24,537.53,86.56,407.70,209.21,556.87C331.85,706.04,210.60,649.86,403.69,646.97C596.78,644.09,477.25,703.86,595.39,551.10C713.53,398.34,685.74,529.06,639.96,341.45C594.18,153.84,679.05,257.07,503.83,175.89C328.61,94.70,462.24,92.71,289.52,179.09C116.80,265.46,198.55,159.75,158.40,348.64"/><path stroke="#000000" stroke-width="0.4mm" fill="none" d="M148.27,359.27C116.43,556.08,77.19,423.81,211.21,571.41C345.22,719.02,217.34,667.22,416.30,654.48C615.26,641.73,495.04,709.42,609.12,545.92C723.21,382.42,701.17,518.61,644.47,327.48C587.77,136.34,680.51,238.49,495.73,163.65C310.94,88.81,448.62,79.99,274.90,177.80C101.17,275.61,180.12,162.46,148.27,359.27"/><path stroke="#000000" stroke-width="0.4mm" fill="none" d="M140.01,360.32C108.99,563.59,67.30,427.54,206.88,578.53C346.45,729.52,214.09,677.29,419.17,662.30C624.24,647.32,500.88,718.23,617.03,548.56C733.17,378.88,711.70,519.55,651.46,322.95C591.22,126.35,687.81,230.84,496.54,155.36C305.27,79.88,447.19,69.51,268.92,171.99C90.66,274.47,171.03,157.05,140.01,360.32"/><path stroke="#000000" stroke-width="0.4mm" fill="none" d="M133.61,350.21C94.69,558.48,56.42,416.94,194.98,577.23C333.55,737.52,199.03,679.18,410.74,670.79C622.45,662.39,492.97,731.19,618.40,560.44C743.84,389.68,716.90,533.81,661.61,329.28C606.32,124.74,702.20,235.67,507.82,151.37C313.43,67.08,459.94,61.27,272.84,160.69C85.73,260.11,172.54,141.94,133.61,350.21"/><path stroke="#000000" stroke-width="0.4mm" fill="none" d="M129.83,330.38C75.39,541.61,45.91,393.57,177.12,567.82C308.33,742.08,174.20,672.83,392.24,678.89C610.29,684.96,472.52,746.65,613.21,579.95C753.90,413.26,716.23,559.43,673.63,345.50C631.02,131.57,721.82,252.16,528.00,152.09C334.17,52.02,485.07,56.22,285.98,145.36C86.90,234.50,184.26,119.15,129.83,330.38"/><path stroke="#000000" stroke-width="0.4mm" fill="none" d="M129.17,305.03C54.92,516.78,37.63,362.47,156.89,552.54C276.15,742.61,144.72,659.91,367.68,685.17C590.64,710.44,444.04,761.63,602.81,603.07C761.58,444.51,710.19,591.04,685.22,368.05C660.24,145.06,742.77,276.59,552.85,157.09C362.94,37.59,517.23,55.07,305.39,129.04C93.54,203.02,203.41,93.29,129.17,305.03"/><path stroke="#000000" stroke-width="0.4mm" fill="none" d="M130.53,279.96C36.68,490.64,31.93,331.10,138.13,535.84C244.34,740.57,116.65,644.81,342.93,689.43C569.21,734.05,414.73,774.17,590.70,625.07C766.67,475.98,701.72,621.77,694.87,391.23C688.02,160.70,761.51,302.38,577.00,164.00C392.48,25.62,549.07,56.49,325.84,114.47C102.61,172.45,224.38,69.28,130.53,279.96"/><path stroke="#000000" stroke-width="0.4mm" fill="none" d="M130.92,260.71C22.01,471.09,26.74,307.22,123.33,523.53C219.91,739.84,94.74,633.98,324.08,693.33C553.41,752.69,392.60,784.54,582.00,642.25C771.40,499.96,696.04,645.54,702.87,408.75C709.71,171.95,776.55,321.64,595.68,168.66C414.81,15.67,573.51,56.75,341.13,102.77C108.75,148.80,239.82,50.33,130.92,260.71"/><path stroke="#000000" stroke-width="0.4mm" fill="none" d="M126.87,251.26C10.59,464.80,18.97,296.75,113.42,520.80C207.87,744.86,81.71,633.52,315.77,699.38C549.83,765.23,384.12,794.45,581.54,652.51C778.97,510.58,698.49,658.35,710.61,415.50C722.73,172.65,788.09,327.71,605.78,166.82C423.47,5.93,585.45,51.50,345.99,93.72C106.54,135.95,243.16,37.72,126.87,251.26"/><path stroke="#000000" stroke-width="0.4mm" fill="none" d="M116.60,253.56C2.11,475.14,6.96,302.61,108.81,530.27C210.66,757.93,78.80,646.57,320.30,708.88C561.79,771.20,392.51,804.85,591.80,654.90C791.09,504.94,711.86,658.28,718.87,408.97C725.89,159.67,796.37,317.21,605.83,156.29C415.29,-4.64,582.41,38.49,337.79,87.12C93.18,135.76,231.09,31.99,116.60,253.56"/><path stroke="#000000" stroke-width="0.4mm" fill="none" d="M101.12,267.32C-2.60,500.99,-8.09,324.16,109.92,550.95C227.94,777.74,86.26,671.77,337.16,720.90C588.05,770.04,416.87,814.74,611.71,649.21C806.55,483.69,734.77,645.40,726.84,389.86C718.91,134.32,800.58,291.27,595.85,138.14C391.13,-14.98,564.75,19.02,317.38,83.61C70.02,148.20,204.85,33.65,101.12,267.32"/><path stroke="#000000" stroke-width="0.4mm" fill="none" d="M83.70,289.64C-2.58,536.93,-23.04,356.84,116.51,578.48C256.05,800.13,102.50,703.83,362.79,732.93C623.08,762.02,452.06,822.04,637.09,636.67C822.13,451.30,762.42,622.44,732.86,362.20C703.30,101.95,799.87,255.34,577.98,116.19C356.09,-22.96,536.21,-2.83,289.07,83.90C41.94,170.62,169.98,42.35,83.70,289.64"/><path stroke="#000000" stroke-width="0.4mm" fill="none" d="M67.73,314.87C1.18,574.65,-35.33,392.70,126.28,606.70C287.89,820.71,122.87,735.80,390.95,742.88C659.02,749.96,489.75,826.04,662.43,620.86C835.11,415.69,789.05,595.46,736.30,332.53C683.55,69.60,795.38,217.69,556.93,95.00C318.47,-27.69,503.99,-22.79,259.39,87.15C14.79,197.08,134.28,55.10,67.73,314.87"/><path stroke="#000000" stroke-width="0.4mm" fill="none" d="M54.92,335.83C4.75,605.63,-44.98,422.35,134.68,629.79C314.33,837.23,140.03,761.84,414.23,750.71C688.43,739.59,520.81,828.85,683.07,607.54C845.33,386.23,810.61,572.93,738.75,308.09C666.89,43.24,791.22,186.79,539.35,77.85C287.48,-31.10,477.23,-38.80,235.01,90.19C-7.21,219.19,105.08,66.03,54.92,335.83"/><path stroke="#000000" stroke-width="0.4mm" fill="none" d="M45.10,345.91C2.81,623.39,-54.14,437.69,136.43,643.75C327.01,849.81,146.31,778.56,426.24,758.04C706.17,737.52,537.80,834.37,696.29,602.72C854.78,371.07,825.52,563.09,743.22,294.75C660.93,26.40,792.81,169.00,531.71,66.03C270.60,-36.94,464.31,-51.14,221.01,88.80C-22.29,228.74,87.39,68.44,45.10,345.91"/><path stroke="#000000" stroke-width="0.4mm" fill="none" d="M37.74,341.18C-8.24,624.40,-64.61,434.01,128.15,646.55C320.91,859.09,136.91,784.45,423.27,766.26C709.62,748.07,536.54,845.39,700.86,610.17C865.18,374.95,833.36,570.94,751.90,295.82C670.45,20.69,803.84,167.77,537.95,59.91C272.06,-47.94,470.23,-60.53,220.12,80.10C-29.98,220.74,83.73,57.96,37.74,341.18"/><path stroke="#000000" stroke-width="0.4mm" fill="none" d="M33.29,321.59C-28.01,608.30,-75.88,411.14,110.06,637.82C296.00,864.51,112.00,779.00,405.16,774.96C698.32,770.93,516.75,861.47,696.38,629.75C876.00,398.03,833.58,596.44,764.41,311.53C695.25,26.62,823.92,183.49,558.04,59.93C292.16,-63.63,495.04,-66.42,232.66,64.41C-29.72,195.24,94.59,34.89,33.29,321.59"/><path stroke="#000000" stroke-width="0.4mm" fill="none" d="M32.78,291.18C-52.29,578.28,-85.45,373.73,85.97,619.25C257.38,864.77,76.79,763.16,375.62,782.22C674.45,801.28,482.41,879.13,683.63,657.37C884.86,435.62,825.98,634.30,778.07,338.72C730.15,43.13,848.78,213.04,587.81,66.21C326.84,-80.63,533.64,-67.44,256.12,45.05C-21.39,157.54,117.86,4.08,32.78,291.18"/></g></svg>