<svg width="30" height="30" viewBox="0 0 30 30" fill="none" xmlns="http://www.w3.org/2000/svg">
<g clip-path="url(#clip0_544_242)">
<path d="M29.1763 16.1762C30.2746 15.0779 30.2746 13.2971 29.1763 12.1988L19.8013 2.82377C18.7029 1.72543 16.9222 1.72537 15.8238 2.82377L0.823755 17.8238C-0.274585 18.9221 -0.274585 20.7029 0.823755 21.8012L6.44876 27.4262C6.97623 27.9537 7.69161 28.25 8.43755 28.25H29.2969C29.6852 28.25 30.0001 27.9352 30.0001 27.5469V25.2031C30.0001 24.8148 29.6852 24.5 29.2969 24.5H20.8526L29.1763 16.1762V16.1762ZM11.4442 12.5067L19.4934 20.5559L15.5492 24.5H8.82591L4.1384 19.8125L11.4442 12.5067V12.5067Z" fill="black"/>
</g>
<defs>
<clipPath id="clip0_544_242">
<rect width="30" height="30" rx="4" fill="white"/>
</clipPath>
</defs>
</svg>
