<svg width="27" height="30" viewBox="0 0 27 30" fill="none" xmlns="http://www.w3.org/2000/svg">
<g clip-path="url(#clip0_544_246)">
<path d="M22.8302 6.60008V5.96581C22.8302 3.41042 20.456 1.4722 17.9647 2.12522C16.463 -0.775167 12.4516 -0.65505 11.0517 2.16899C8.63292 1.55018 6.22326 3.39524 6.22326 5.97659V13.367C5.05414 12.9318 3.68568 13.0701 2.58558 13.8868C0.865563 15.1639 0.488278 17.5977 1.73304 19.345L8.76247 29.213C8.93587 29.4564 9.16494 29.6548 9.43057 29.7917C9.6962 29.9286 9.99071 30.0001 10.2895 30.0001H23.3499C24.2232 30.0001 24.9809 29.3972 25.177 28.5462L26.9456 20.8729C27.1477 19.9953 27.2498 19.0977 27.25 18.1971V10.4883C27.25 8.10823 25.1685 6.27003 22.8302 6.60008ZM24.4373 18.1971C24.4373 18.8844 24.3591 19.5722 24.205 20.2412L22.6039 27.1875H10.7726L4.02289 17.7131C3.17685 16.5254 4.90314 15.2067 5.74519 16.3886L7.33472 18.6198C7.86177 19.3596 9.03576 18.9881 9.03576 18.0758V5.97659C9.03576 4.47395 11.1786 4.52288 11.1786 6.01708V15C11.1786 15.5178 11.5983 15.9375 12.1161 15.9375H12.5178C13.0356 15.9375 13.4553 15.5178 13.4553 15V3.92581C13.4553 2.42212 15.5981 2.4721 15.5981 3.9663V15C15.5981 15.5178 16.0178 15.9375 16.5356 15.9375H16.9374C17.4551 15.9375 17.8749 15.5178 17.8749 15V5.92532C17.8749 4.4211 20.0176 4.47161 20.0176 5.96581V15C20.0176 15.5178 20.4373 15.9375 20.9551 15.9375H21.3569C21.8747 15.9375 22.2944 15.5178 22.2944 15V10.5288C22.2944 8.99118 24.4372 9.02645 24.4372 10.4883V18.1971H24.4373Z" fill="black"/>
</g>
<defs>
<clipPath id="clip0_544_246">
<rect width="26.25" height="30" rx="4" fill="white"/>
</clipPath>
</defs>
</svg>
