<svg width="32" height="30" viewBox="0 0 32 30" fill="none" xmlns="http://www.w3.org/2000/svg">
<g clip-path="url(#clip0_544_250)">
<path d="M0 28.1241L5.85469 30.0003L7.93184 27.9231L4.00371 23.995L0 28.1241ZM7.30137 14.061C6.99291 14.3332 6.76929 14.6885 6.65719 15.0843C6.54509 15.4802 6.54923 15.8999 6.66914 16.2934L7.43379 18.803L4.44961 21.7878L10.0881 27.4263L13.0682 24.4462L15.5725 25.2126C16.377 25.4587 17.2512 25.212 17.8078 24.5809L19.8908 22.1411L9.73418 11.9844L7.30137 14.061V14.061ZM30.9328 4.64499L27.2297 0.941862C26.0291 -0.258725 24.102 -0.319076 22.8281 0.804166L11.165 10.7628L21.1125 20.7108L31.0705 9.04714C32.1943 7.77331 32.134 5.84616 30.9328 4.64499V4.64499Z" fill="black"/>
</g>
<defs>
<clipPath id="clip0_544_250">
<rect width="31.875" height="30" rx="4" fill="white"/>
</clipPath>
</defs>
</svg>
