<svg width="40" height="40" viewBox="0 0 40 40" xmlns="http://www.w3.org/2000/svg">
<path fill="white" d="M36.875 1.25H13.125C12.6277 1.25 12.1508 1.44754 11.7992 1.79917C11.4475 2.15081 11.25 2.62772 11.25 3.125V26.875C11.25 27.3723 11.4475 27.8492 11.7992 28.2008C12.1508 28.5525 12.6277 28.75 13.125 28.75H36.875C37.3723 28.75 37.8492 28.5525 38.2008 28.2008C38.5525 27.8492 38.75 27.3723 38.75 26.875V3.125C38.75 2.62772 38.5525 2.15081 38.2008 1.79917C37.8492 1.44754 37.3723 1.25 36.875 1.25V1.25ZM36.25 26.25H13.75V3.75H36.25V26.25Z" />
<path fill="white" d="M8.75 31.25V6.25H6.25V31.875C6.25 32.3723 6.44754 32.8492 6.79917 33.2008C7.15081 33.5525 7.62772 33.75 8.125 33.75H33.75V31.25H8.75Z" />
<path fill="white" d="M3.75 36.25V11.25H1.25V36.875C1.25 37.3723 1.44754 37.8492 1.79917 38.2008C2.15081 38.5525 2.62772 38.75 3.125 38.75H28.75V36.25H3.75Z" />
</svg>
