<svg viewBox="0 0 103 28" fill="none" xmlns="http://www.w3.org/2000/svg">
<g clip-path="url(#clip0_401_536)">
<path d="M30.137 14.0401C30.5078 13.7784 30.9113 13.4949 31.3475 13.1895C31.7837 12.8842 32.2635 12.6333 32.787 12.437C33.3323 12.2407 33.8666 12.1426 34.3901 12.1426C35.088 12.1426 35.6442 12.4043 36.0586 12.9278C36.473 13.4512 36.6802 14.2255 36.6802 15.2506V25H40.9333V15.0543C40.9333 13.8329 40.7697 12.7424 40.4426 11.7827C40.1372 10.8012 39.5919 10.027 38.8068 9.45987C38.0434 8.89279 36.9419 8.60926 35.5024 8.60926C34.9354 8.60926 34.3028 8.6965 33.6049 8.87099C32.9288 9.02366 32.2199 9.27448 31.4784 9.62346C30.7586 9.95062 30.0607 10.3432 29.3845 10.8012L30.137 14.0401ZM30.137 25V1.90247L25.9166 2.26234V25H30.137Z" fill="#2B2A35"/>
<path d="M47.6784 20.2562C47.6784 19.6891 47.8747 19.1765 48.2673 18.7185C48.6599 18.2605 49.227 18.0315 49.9685 18.0315H53.1747V20.4525C52.6295 20.9759 52.0515 21.3685 51.4408 21.6302C50.8519 21.892 50.263 22.0228 49.6741 22.0228C49.2815 22.0228 48.9325 21.9465 48.6272 21.7938C48.3437 21.6193 48.1146 21.4012 47.9402 21.1395C47.7657 20.856 47.6784 20.5615 47.6784 20.2562ZM45.9772 13.6802C46.5661 13.4185 47.2967 13.1786 48.1692 12.9605C49.0416 12.7424 49.8486 12.6333 50.5902 12.6333C51.3753 12.6333 51.986 12.8623 52.4223 13.3204C52.8803 13.7566 53.1202 14.3673 53.142 15.1525V15.1852H50.034C48.2455 15.207 46.7951 15.6541 45.6827 16.5265C44.5704 17.3772 44.0142 18.6204 44.0142 20.2562C44.0142 21.7829 44.4832 23.0261 45.421 23.9858C46.3589 24.9237 47.7984 25.3926 49.7395 25.3926C50.5247 25.3926 51.2663 25.1963 51.9642 24.8037C52.684 24.4111 53.3383 23.9095 53.9272 23.2988L54.6469 25H57.4278V14.5636C57.4278 13.4294 57.1116 12.4261 56.479 11.5537C55.8683 10.6595 55.0395 9.96152 53.9926 9.45987C52.9457 8.95823 51.7897 8.70741 50.5247 8.70741C50.0885 8.70741 49.4887 8.77284 48.7253 8.9037C47.9838 9.03457 47.2531 9.20905 46.5334 9.42716C45.8136 9.62345 45.2465 9.86337 44.8321 10.1469L45.9772 13.6802Z" fill="#2B2A35"/>
<path d="M64.1323 20.2562C64.1323 19.6891 64.3286 19.1765 64.7212 18.7185C65.1138 18.2605 65.6809 18.0315 66.4224 18.0315H69.6286V20.4525C69.0833 20.9759 68.5053 21.3685 67.8946 21.6302C67.3058 21.892 66.7169 22.0228 66.128 22.0228C65.7354 22.0228 65.3864 21.9465 65.0811 21.7938C64.7975 21.6193 64.5685 21.4012 64.394 21.1395C64.2195 20.856 64.1323 20.5615 64.1323 20.2562ZM62.4311 13.6802C63.0199 13.4185 63.7506 13.1786 64.623 12.9605C65.4955 12.7424 66.3025 12.6333 67.044 12.6333C67.8292 12.6333 68.4399 12.8623 68.8761 13.3204C69.3342 13.7566 69.5741 14.3673 69.5959 15.1525V15.1852H66.4879C64.6994 15.207 63.249 15.6541 62.1366 16.5265C61.0243 17.3772 60.4681 18.6204 60.4681 20.2562C60.4681 21.7829 60.937 23.0261 61.8749 23.9858C62.8127 24.9237 64.2523 25.3926 66.1934 25.3926C66.9786 25.3926 67.7202 25.1963 68.4181 24.8037C69.1379 24.4111 69.7922 23.9095 70.3811 23.2988L71.1008 25H73.8817V14.5636C73.8817 13.4294 73.5654 12.4261 72.9329 11.5537C72.3222 10.6595 71.4934 9.96152 70.4465 9.45987C69.3996 8.95823 68.2436 8.70741 66.9786 8.70741C66.5424 8.70741 65.9426 8.77284 65.1792 8.9037C64.4376 9.03457 63.707 9.20905 62.9872 9.42716C62.2675 9.62345 61.7004 9.86337 61.286 10.1469L62.4311 13.6802Z" fill="#2B2A35"/>
<path d="M81.8948 25V1.90247L77.6744 2.26234V25H81.8948Z" fill="#2B2A35"/>
<path d="M90.3614 25V19.7981L92.0953 18.3259L96.054 25H100.929L95.1052 15.5778L99.5546 11.7173L97.1663 8.67469L90.3614 14.9235V1.90247L86.141 2.26234V25H90.3614Z" fill="#2B2A35"/>
<path d="M21.9046 4.51488C21.4331 4.01737 20.7833 3.7275 20.0981 3.709C19.413 3.6905 18.7485 3.94489 18.2508 4.41624L8.18504 13.9528L8.0864 17.6066L11.7402 17.7052L21.806 8.16868C22.3035 7.69718 22.5934 7.04739 22.6119 6.36221C22.6303 5.67702 22.376 5.01254 21.9046 4.51488Z" fill="#5726CD"/>
<path d="M18.5554 19.0988L22.4813 17.7901V23.0247C22.4813 23.7474 21.8954 24.3333 21.1727 24.3333H18.5554V19.0988Z" fill="#2B2A35"/>
<path d="M1.54321 4.7037H5.46914V25.642H4.1605C2.71501 25.642 1.54321 24.4702 1.54321 23.0247V4.7037Z" fill="#2B2A35"/>
<path d="M1.54321 4.70371C1.54321 3.25822 2.71501 2.08643 4.1605 2.08643H13.321L12.0124 5.35803H1.54321V4.70371Z" fill="#2B2A35"/>
<path d="M4.1604 22.3704H22.4814V23.0247C22.4814 24.4702 21.3096 25.642 19.8641 25.642H4.1604V22.3704Z" fill="#2B2A35"/>
</g>
<defs>
<clipPath id="clip0_401_536">
<rect width="103" height="28" fill="white"/>
</clipPath>
</defs>
</svg>
