<?xml version="1.0" encoding="UTF-8" standalone="no"?>
<svg
   width="16"
   height="16"
   fill="currentColor"
   class="bi bi-cursor"
   viewBox="0 0 16 16"
   version="1.1"
   id="svg4"
   sodipodi:docname="multiselect.svg"
   xml:space="preserve"
   inkscape:version="1.2.1 (9c6d41e410, 2022-07-14)"
   xmlns:inkscape="http://www.inkscape.org/namespaces/inkscape"
   xmlns:sodipodi="http://sodipodi.sourceforge.net/DTD/sodipodi-0.dtd"
   xmlns="http://www.w3.org/2000/svg"
   xmlns:svg="http://www.w3.org/2000/svg"><defs
     id="defs8" /><sodipodi:namedview
     id="namedview6"
     pagecolor="#ffffff"
     bordercolor="#666666"
     borderopacity="1.0"
     inkscape:showpageshadow="2"
     inkscape:pageopacity="0.0"
     inkscape:pagecheckerboard="0"
     inkscape:deskcolor="#d1d1d1"
     showgrid="false"
     inkscape:zoom="23.21875"
     inkscape:cx="7.12786"
     inkscape:cy="9.3243607"
     inkscape:window-width="1350"
     inkscape:window-height="930"
     inkscape:window-x="438"
     inkscape:window-y="205"
     inkscape:window-maximized="0"
     inkscape:current-layer="svg4" /><path
     d="m 14.896791,0.85034877 a 0.54141254,0.54141254 0 0 1 0.11153,0.60313363 L 8.8827808,15.23568 A 0.54141254,0.54141254 0 0 1 7.8898302,15.22818 L 5.6797843,10.067356 0.51795727,7.8562269 A 0.54141254,0.54141254 0 0 1 0.51146031,6.8643592 L 14.293658,0.73881777 a 0.54141254,0.54141254 0 0 1 0.60205,0.1115303 z M 2.0848051,7.3494648 6.3045744,9.1577823 a 0.54141254,0.54141254 0 0 1 0.2837,0.284783 L 8.3965924,13.662334 13.446888,2.2991688 Z"
     id="path2"
     style="stroke-width:1.08282" /><path
     d="m 8.2131864,5.6387613 a 0.2265142,0.2265142 0 0 1 0.2265144,0.2265142 v 1.3590852 h 1.359085 a 0.2265142,0.2265142 0 0 1 0,0.4530284 h -1.359085 v 1.3590852 a 0.2265143,0.2265143 0 0 1 -0.4530286,0 V 7.6773891 H 6.627587 a 0.2265142,0.2265142 0 0 1 0,-0.4530284 H 7.9866722 V 5.8652755 A 0.2265142,0.2265142 0 0 1 8.2131864,5.6387613 Z"
     id="path114"
     style="stroke-width:0.453028" /></svg>
