<svg width="35" height="49" viewBox="0 0 35 49" fill="none" xmlns="http://www.w3.org/2000/svg">
<g clip-path="url(#clip0_544_292)">
<path d="M12.2655 0.335312H21.5278C21.5278 0.335312 23.724 -0.242807 24.0104 3.0332C24.2969 6.30921 24.0104 36.7568 24.0104 36.7568C24.0104 36.7568 24.3924 39.262 21.7187 39.4547C19.0451 39.6474 3.09869 39.4547 3.09869 39.4547C3.09869 39.4547 0.425036 39.9365 0.329548 36.6605C0.234061 33.3845 0.329548 2.55144 0.329548 2.55144C0.329548 2.55144 0.806986 0.431665 3.28966 0.335312C5.96331 0.231251 12.2655 0.335312 12.2655 0.335312Z" stroke="black" stroke-miterlimit="10"/>
<path d="M19.7812 2.93683H4.64357C4.16894 2.93683 3.78418 3.32508 3.78418 3.80401V14.2102C3.78418 14.6891 4.16894 15.0773 4.64357 15.0773H19.7812C20.2558 15.0773 20.6406 14.6891 20.6406 14.2102V3.80401C20.6406 3.32508 20.2558 2.93683 19.7812 2.93683Z" stroke="black" stroke-miterlimit="10"/>
<path d="M12.2263 33.2881C16.1025 33.2881 19.2447 30.1174 19.2447 26.2062C19.2447 22.2949 16.1025 19.1242 12.2263 19.1242C8.35022 19.1242 5.20801 22.2949 5.20801 26.2062C5.20801 30.1174 8.35022 33.2881 12.2263 33.2881Z" stroke="black" stroke-miterlimit="10"/>
<path d="M18.8626 24.4236H5.11239C4.05766 24.4236 3.20264 25.2864 3.20264 26.3507V26.5434C3.20264 27.6077 4.05766 28.4705 5.11239 28.4705H18.8626C19.9173 28.4705 20.7723 27.6077 20.7723 26.5434V26.3507C20.7723 25.2864 19.9173 24.4236 18.8626 24.4236Z" stroke="black" stroke-miterlimit="10"/>
<path d="M16.5708 37.9131C17.5201 37.9131 18.2896 37.1366 18.2896 36.1787C18.2896 35.2208 17.5201 34.4443 16.5708 34.4443C15.6216 34.4443 14.8521 35.2208 14.8521 36.1787C14.8521 37.1366 15.6216 37.9131 16.5708 37.9131Z" stroke="black" stroke-miterlimit="10"/>
<path d="M20.6768 38.0094C21.626 38.0094 22.3956 37.2329 22.3956 36.2751C22.3956 35.3172 21.626 34.5407 20.6768 34.5407C19.7275 34.5407 18.958 35.3172 18.958 36.2751C18.958 37.2329 19.7275 38.0094 20.6768 38.0094Z" stroke="black" stroke-miterlimit="10"/>
<path d="M16.5708 36.1787C16.5708 36.1787 14.852 47.5484 25.1647 47.8374C33.9495 48.0831 33.6631 38.2985 33.6631 38.2985V25.3871" stroke="black" stroke-miterlimit="10"/>
<path d="M33.6631 15.2701V12.1868" stroke="black" stroke-miterlimit="10"/>
<path d="M20.6769 36.2751C20.6769 36.2751 19.6341 43.9987 25.0693 43.6943C30.2256 43.4052 29.4617 36.1787 29.4617 36.1787V25.3871" stroke="black" stroke-miterlimit="10"/>
<path d="M29.3662 15.2701V12.1868" stroke="black" stroke-miterlimit="10"/>
<path d="M28.3159 24.3272C28.3159 24.6083 28.4266 24.8779 28.6236 25.0767C28.8205 25.2755 29.0877 25.3871 29.3663 25.3871C29.6449 25.3871 29.912 25.2755 30.109 25.0767C30.306 24.8779 30.4166 24.6083 30.4166 24.3272V16.4263C30.4166 16.1452 30.306 15.8756 30.109 15.6768C29.912 15.4781 29.6449 15.3664 29.3663 15.3664C29.0877 15.3664 28.8205 15.4781 28.6236 15.6768C28.4266 15.8756 28.3159 16.1452 28.3159 16.4263V24.3272Z" stroke="black" stroke-miterlimit="10"/>
<path d="M32.6128 24.3272C32.6128 24.6083 32.7235 24.8779 32.9204 25.0767C33.1174 25.2755 33.3846 25.3871 33.6632 25.3871C33.9417 25.3871 34.2089 25.2755 34.4059 25.0767C34.6029 24.8779 34.7135 24.6083 34.7135 24.3272V16.4263C34.7135 16.1452 34.6029 15.8756 34.4059 15.6768C34.2089 15.4781 33.9417 15.3664 33.6632 15.3664C33.3846 15.3664 33.1174 15.4781 32.9204 15.6768C32.7235 15.8756 32.6128 16.1452 32.6128 16.4263V24.3272Z" stroke="black" stroke-miterlimit="10"/>
</g>
<defs>
<clipPath id="clip0_544_292">
<rect width="35" height="48.2759" fill="white"/>
</clipPath>
</defs>
</svg>
