<svg width="40" height="40" viewBox="0 0 40 40" fill="none" xmlns="http://www.w3.org/2000/svg">
<path d="M13.7782 24.4667C13.4715 24.4667 13.2649 24.4967 13.1582 24.5267V26.49C13.2849 26.52 13.4432 26.5283 13.6615 26.5283C14.4599 26.5283 14.9515 26.125 14.9515 25.4433C14.9515 24.8333 14.5282 24.4667 13.7782 24.4667V24.4667ZM19.5899 24.4867C19.2565 24.4867 19.0399 24.5167 18.9115 24.5467V28.8967C19.0399 28.9267 19.2465 28.9267 19.4332 28.9267C20.7949 28.9367 21.6815 28.1867 21.6815 26.6C21.6915 25.2167 20.8832 24.4867 19.5899 24.4867V24.4867Z" fill="black"/>
<path d="M23.3332 3.33334H9.99984C9.11578 3.33334 8.26794 3.68453 7.64281 4.30965C7.01769 4.93478 6.6665 5.78262 6.6665 6.66668V33.3334C6.6665 34.2174 7.01769 35.0653 7.64281 35.6904C8.26794 36.3155 9.11578 36.6667 9.99984 36.6667H29.9998C30.8839 36.6667 31.7317 36.3155 32.3569 35.6904C32.982 35.0653 33.3332 34.2174 33.3332 33.3334V13.3333L23.3332 3.33334ZM15.8298 26.9834C15.3148 27.4667 14.5548 27.6834 13.6698 27.6834C13.4982 27.6852 13.3267 27.6752 13.1565 27.6534V30.03H11.6665V23.47C12.3389 23.3697 13.0184 23.324 13.6982 23.3334C14.6265 23.3334 15.2865 23.51 15.7315 23.865C16.1548 24.2017 16.4415 24.7534 16.4415 25.4034C16.4398 26.0567 16.2232 26.6084 15.8298 26.9834V26.9834ZM22.1748 29.2417C21.4748 29.8234 20.4098 30.1 19.1082 30.1C18.3282 30.1 17.7765 30.05 17.4015 30V23.4717C18.0742 23.3735 18.7534 23.3273 19.4332 23.3334C20.6948 23.3334 21.5148 23.56 22.1548 24.0433C22.8465 24.5567 23.2798 25.375 23.2798 26.55C23.2798 27.8217 22.8148 28.7 22.1748 29.2417V29.2417ZM28.3332 24.6167H25.7798V26.135H28.1665V27.3584H25.7798V30.0317H24.2698V23.3833H28.3332V24.6167ZM23.3332 15H21.6665V6.66668L29.9998 15H23.3332Z" fill="black"/>
</svg>
