<svg width="27" height="30" viewBox="0 0 27 30" fill="none" xmlns="http://www.w3.org/2000/svg">
<g clip-path="url(#clip0_544_234)">
<path d="M23.4375 2H2.8125C1.25977 2 0 3.25977 0 4.8125V25.4375C0 26.9902 1.25977 28.25 2.8125 28.25H23.4375C24.9902 28.25 26.25 26.9902 26.25 25.4375V4.8125C26.25 3.25977 24.9902 2 23.4375 2ZM23.0859 25.4375H3.16406C2.9707 25.4375 2.8125 25.2793 2.8125 25.0859V5.16406C2.8125 4.9707 2.9707 4.8125 3.16406 4.8125H23.0859C23.2793 4.8125 23.4375 4.9707 23.4375 5.16406V25.0859C23.4375 25.2793 23.2793 25.4375 23.0859 25.4375Z" fill="black"/>
</g>
<defs>
<clipPath id="clip0_544_234">
<rect width="26.25" height="30" rx="4" fill="white"/>
</clipPath>
</defs>
</svg>
