<svg width="27" height="30" viewBox="0 0 27 30" fill="none" xmlns="http://www.w3.org/2000/svg">
<g clip-path="url(#clip0_544_306)">
<path d="M25.3863 1.87494H18.3345L17.7822 0.779235C17.6651 0.544985 17.4849 0.347939 17.2617 0.210265C17.0385 0.0725907 16.7812 -0.000249899 16.5187 -6.22062e-05H9.80193C9.54006 -0.00106595 9.28321 0.071503 9.0608 0.209331C8.83838 0.347158 8.6594 0.544669 8.54437 0.779235L7.99198 1.87494H0.940233C0.690868 1.87494 0.451716 1.97371 0.275388 2.14953C0.09906 2.32534 0 2.5638 0 2.81244L0 4.68744C0 4.93608 0.09906 5.17454 0.275388 5.35035C0.451716 5.52617 0.690868 5.62494 0.940233 5.62494H25.3863C25.6357 5.62494 25.8748 5.52617 26.0511 5.35035C26.2275 5.17454 26.3265 4.93608 26.3265 4.68744V2.81244C26.3265 2.5638 26.2275 2.32534 26.0511 2.14953C25.8748 1.97371 25.6357 1.87494 25.3863 1.87494V1.87494ZM3.12628 27.3632C3.17112 28.0773 3.48718 28.7474 4.01013 29.2373C4.53307 29.7271 5.22358 29.9999 5.9411 29.9999H20.3854C21.1029 29.9999 21.7935 29.7271 22.3164 29.2373C22.8393 28.7474 23.1554 28.0773 23.2003 27.3632L24.4461 7.49994H1.88047L3.12628 27.3632Z" fill="#444444"/>
</g>
<defs>
<clipPath id="clip0_544_306">
<rect width="26.3265" height="30" fill="white"/>
</clipPath>
</defs>
</svg>
