<svg width="40" height="40" viewBox="0 0 40 40" fill="none" xmlns="http://www.w3.org/2000/svg">
<path d="M20.0002 20L24.1668 23.3333M20.0002 20V35V20ZM20.0002 20L15.8335 23.3333L20.0002 20Z" stroke="black" stroke-width="2" stroke-linecap="round" stroke-linejoin="round"/>
<path d="M8.39002 15.195C6.8137 15.5917 5.43648 16.5503 4.51711 17.8907C3.59773 19.2312 3.19949 20.8613 3.3972 22.4747C3.5949 24.088 4.37495 25.5737 5.59079 26.6525C6.80663 27.7313 8.37457 28.329 10 28.3333H11.6667" stroke="black" stroke-width="2" stroke-linecap="round" stroke-linejoin="round"/>
<path d="M26.3834 11.8967C25.8138 9.64095 24.4077 7.68623 22.4503 6.42876C20.4929 5.17129 18.1306 4.70515 15.8422 5.12484C13.5538 5.54453 11.5107 6.81864 10.1269 8.6889C8.74308 10.5592 8.1222 12.8856 8.3901 15.1967C8.3901 15.1967 8.6451 16.6667 9.16677 17.5" stroke="black" stroke-width="2" stroke-linecap="round" stroke-linejoin="round"/>
<path d="M28.3332 28.3333C29.5099 28.3325 30.6731 28.0825 31.7463 27.5998C32.8194 27.117 33.7781 26.4124 34.5594 25.5324C35.3406 24.6525 35.9266 23.617 36.2788 22.4942C36.631 21.3714 36.7414 20.1868 36.6028 19.0182C36.4642 17.8497 36.0796 16.7238 35.4745 15.7146C34.8693 14.7053 34.0573 13.8357 33.0919 13.163C32.1265 12.4902 31.0295 12.0295 29.8732 11.8113C28.7168 11.593 27.5274 11.6221 26.3832 11.8967L24.1665 12.5" stroke="black" stroke-width="2" stroke-linecap="round" stroke-linejoin="round"/>
</svg>
